<svg width="289" height="303" viewBox="0 0 289 303" fill="none" xmlns="http://www.w3.org/2000/svg">
<g clip-path="url(#clip0_53_2)">
<path d="M210.864 88.5586C190.155 87.4815 176.007 81.209 166.663 69.0568C156.821 56.2619 151.669 35.8972 150.976 6.9271C150.887 3.10648 147.813 0.0476088 144.017 0.00595093C144.017 0.00595093 143.994 0.00595093 143.976 0.00595093C143.964 0.00595093 143.952 0.00595093 143.935 0.00595093C140.139 0.0535599 137.071 3.11244 136.976 6.93305C136.283 35.9031 131.131 56.2678 121.289 69.0628C111.945 81.2149 97.7972 87.4874 77.0883 88.5646C73.3339 88.761 70.3848 91.8496 70.3848 95.6286V95.819C70.3848 99.592 73.3398 102.687 77.0883 102.883C97.7972 103.96 111.945 110.233 121.289 122.385C131.131 135.18 136.976 151.89 136.976 194.322C136.976 198.143 140.139 201.201 143.935 201.243C143.935 201.243 143.958 201.243 143.976 201.243C143.988 201.243 144 201.243 144.017 201.243C147.813 201.195 150.976 198.137 150.976 194.316C150.976 151.884 156.821 135.174 166.663 122.379C176.007 110.227 190.155 103.954 210.864 102.877C214.618 102.681 217.567 99.592 217.567 95.813V95.6226C217.567 91.8496 214.612 88.755 210.864 88.5586ZM168.445 101.568C163.583 104.966 159.326 109.048 155.654 113.827C153.623 116.463 151.769 119.308 150.081 122.373C148.755 124.783 146.368 125.991 143.976 126.003C141.584 125.991 139.197 124.783 137.871 122.373C136.183 119.308 134.329 116.463 132.298 113.827C128.621 109.048 124.369 104.966 119.507 101.568C115.427 98.7112 115.427 92.7185 119.507 89.8619C124.369 86.4638 128.626 82.3814 132.298 77.6026C134.329 74.9663 136.183 72.1216 137.871 69.0568C139.197 66.6466 141.584 65.4385 143.976 65.4266C146.368 65.4385 148.755 66.6466 150.081 69.0568C151.769 72.1216 153.623 74.9663 155.654 77.6026C159.331 82.3814 163.583 86.4638 168.445 89.8619C172.525 92.7185 172.525 98.7112 168.445 101.568Z" fill="#FFF7E6"/>
<path d="M235.546 112.238C207.062 112.238 190.326 117.041 179.602 128.306C169.233 139.191 164.809 156.009 164.809 184.538C164.809 188.401 167.924 191.525 171.761 191.525C216.714 191.525 242.498 165.173 242.498 119.225C242.498 115.362 239.383 112.238 235.546 112.238ZM225.189 136.322C223.104 146.749 218.953 155.181 212.759 161.507C206.706 167.691 198.676 171.874 188.775 174.017C184.677 174.903 180.893 171.476 181.296 167.286C182.966 150.028 187.188 143.22 190.972 139.244C194.833 135.192 201.477 130.669 218.426 128.866C222.589 128.425 226.006 132.192 225.183 136.316L225.189 136.322Z" fill="#FFF7E6"/>
<path d="M108.356 128.306C97.6254 117.047 80.8961 112.238 52.4119 112.238C48.5686 112.238 45.4596 115.368 45.4596 119.225C45.4596 165.173 71.2435 191.525 116.196 191.525C120.04 191.525 123.149 188.395 123.149 184.538C123.149 156.009 118.725 139.191 108.356 128.306ZM99.177 174.017C89.2756 171.874 81.2455 167.691 75.1934 161.507C69.005 155.181 64.8478 146.749 62.7633 136.322C61.9343 132.163 65.4045 128.425 69.5972 128.877C86.4864 130.687 93.113 135.198 96.9681 139.25C100.752 143.226 104.974 150.028 106.644 167.292C107.053 171.482 103.263 174.909 99.1651 174.023L99.177 174.017Z" fill="#FFF7E6"/>
</g>
<g clip-path="url(#clip1_53_2)">
<path d="M131.755 261.94H131.468C131.468 261.94 128.981 258.769 126.206 255.983L102.235 231.62C101.843 231.223 101.312 231 100.753 231H89.6409C88.4929 231 87.5609 231.936 87.5609 233.089V264.413C87.5609 265.563 88.496 266.503 89.6409 266.503H102.698C103.846 266.503 104.777 265.566 104.777 264.413V257.613H105.16C105.16 257.613 108.221 261.456 110.9 264.147L148.975 302.997V255.549C148.975 254.396 148.046 253.46 146.898 253.46C143.583 253.46 137.134 253.46 133.826 253.46C132.678 253.46 131.755 254.396 131.755 255.549V261.94Z" fill="#FFF7E6"/>
<path d="M161.963 253.456H175.02C176.168 253.456 177.1 254.392 177.1 255.546V286.56C177.1 287.713 176.168 288.649 175.02 288.649H161.963C160.815 288.649 159.883 287.713 159.883 286.56V255.546C159.883 254.392 160.815 253.456 161.963 253.456Z" fill="#FFF7E6"/>
<path d="M209.339 245.605H247.873C249.021 245.605 249.953 244.669 249.953 243.516V233.089C249.953 231.936 249.021 231 247.873 231H117.955C116.109 231 115.177 233.235 116.47 234.555L125.682 243.953C126.716 245.01 128.129 245.602 129.604 245.602H185.923C187.071 245.602 188.003 246.538 188.003 247.691V286.557C188.003 287.71 188.935 288.646 190.083 288.646H203.139C204.287 288.646 205.219 287.71 205.219 286.557V247.694C205.219 246.541 206.151 245.605 207.299 245.605H209.33H209.339Z" fill="#FFF7E6"/>
<path d="M277.57 231H260.211C259.063 231 258.131 231.936 258.131 233.089V251.367C258.131 252.52 257.199 253.456 256.051 253.456H218.239C217.091 253.456 216.159 254.392 216.159 255.546V286.56C216.159 287.713 217.091 288.649 218.239 288.649H231.296C232.444 288.649 233.376 287.713 233.376 286.56V270.151C233.376 268.998 234.308 268.062 235.456 268.062H258.27C259.418 268.062 260.35 268.998 260.35 270.151V286.56C260.35 287.713 261.282 288.649 262.43 288.649H275.487C276.635 288.649 277.567 287.713 277.567 286.56V246.461C277.567 245.912 277.783 245.385 278.165 244.995L288.395 234.555C289.691 233.235 288.759 231 286.914 231H277.57Z" fill="#FFF7E6"/>
<path d="M32.745 274.047V273.855C32.745 273.855 34.2757 272.413 36.0933 269.915L38.0004 267.234C38.3923 266.685 39.0219 266.36 39.6946 266.36H75.8435C76.9915 266.36 77.9234 265.424 77.9234 264.271V254.994C77.9234 253.841 76.9915 252.905 75.8435 252.905H48.1995L52.7698 246.482C53.1617 245.934 53.7913 245.608 54.464 245.608H74.3129H75.6553C76.9051 245.608 77.9265 244.582 77.9265 243.327V233.281C77.9265 232.026 76.9051 231 75.6553 231H24.2309H2.08603C0.237541 231 -0.694419 233.235 0.601683 234.555L10.8193 244.979C11.2112 245.379 11.7451 245.602 12.3036 245.602H33.4178V245.89C33.4178 245.89 31.6958 247.812 29.8782 250.31L13.43 273.405C13.177 273.759 13.0412 274.186 13.0412 274.62V286.557C13.0412 287.71 13.9731 288.646 15.1211 288.646H117.51C119.356 288.646 120.287 286.411 118.994 285.091L108.777 274.667C108.385 274.267 107.851 274.044 107.293 274.044H32.745V274.047Z" fill="#FFF7E6"/>
</g>
<defs>
<clipPath id="clip0_53_2">
<rect width="197.045" height="201.237" fill="white" transform="translate(45.4536)"/>
</clipPath>
<clipPath id="clip1_53_2">
<rect width="289" height="72" fill="white" transform="translate(0 231)"/>
</clipPath>
</defs>
</svg>
