<svg width="139" height="35" viewBox="0 0 139 35" fill="none" xmlns="http://www.w3.org/2000/svg">
<g clip-path="url(#clip0_84_3196)">
<path d="M63.37 14.8812H63.232C63.232 14.8812 62.0357 13.3561 60.7014 12.0158L49.1717 0.29816C48.9832 0.107337 48.7279 0 48.4593 0H43.1145C42.5623 0 42.1141 0.450221 42.1141 1.0048V16.0708C42.1141 16.6239 42.5638 17.0756 43.1145 17.0756H49.3943C49.9465 17.0756 50.3947 16.6254 50.3947 16.0708V12.8H50.5788C50.5788 12.8 52.0511 14.6486 53.3395 15.9426L71.6521 34.6283V11.8071C71.6521 11.2525 71.2054 10.8023 70.6532 10.8023C69.0592 10.8023 65.9571 10.8023 64.366 10.8023C63.8138 10.8023 63.37 11.2525 63.37 11.8071V14.8812Z" fill="#FFF7E6"/>
<path d="M77.8994 10.8008H84.1792C84.7314 10.8008 85.1796 11.2511 85.1796 11.8056V26.7226C85.1796 27.2771 84.7314 27.7274 84.1792 27.7274H77.8994C77.3472 27.7274 76.899 27.2771 76.899 26.7226V11.8056C76.899 11.2511 77.3472 10.8008 77.8994 10.8008Z" fill="#FFF7E6"/>
<path d="M100.686 7.02464H119.219C119.772 7.02464 120.22 6.57442 120.22 6.01984V1.0048C120.22 0.450221 119.772 0 119.219 0H56.7325C55.8449 0 55.3966 1.07487 56.0185 1.70995L60.449 6.23005C60.9463 6.73841 61.626 7.02315 62.3355 7.02315H89.4231C89.9752 7.02315 90.4234 7.47337 90.4234 8.02795V26.7211C90.4234 27.2756 90.8717 27.7259 91.4238 27.7259H97.7037C98.2558 27.7259 98.7041 27.2756 98.7041 26.7211V8.02944C98.7041 7.47486 99.1523 7.02464 99.7045 7.02464H100.681H100.686Z" fill="#FFF7E6"/>
<path d="M133.502 0H125.153C124.601 0 124.153 0.450221 124.153 1.0048V9.79604C124.153 10.3506 123.705 10.8008 123.153 10.8008H104.966C104.414 10.8008 103.966 11.2511 103.966 11.8056V26.7226C103.966 27.2771 104.414 27.7274 104.966 27.7274H111.246C111.798 27.7274 112.246 27.2771 112.246 26.7226V18.8303C112.246 18.2757 112.695 17.8255 113.247 17.8255H124.22C124.772 17.8255 125.22 18.2757 125.22 18.8303V26.7226C125.22 27.2771 125.668 27.7274 126.221 27.7274H132.5C133.053 27.7274 133.501 27.2771 133.501 26.7226V7.4361C133.501 7.17223 133.605 6.9188 133.789 6.73096L138.709 1.70995C139.332 1.07487 138.884 0 137.997 0H133.502Z" fill="#FFF7E6"/>
<path d="M15.7493 20.7042V20.6118C15.7493 20.6118 16.4854 19.9186 17.3597 18.717L18.2769 17.4274C18.4654 17.1636 18.7682 17.007 19.0918 17.007H36.4783C37.0304 17.007 37.4787 16.5568 37.4787 16.0022V11.5403C37.4787 10.9857 37.0304 10.5355 36.4783 10.5355H23.1824L25.3806 7.44654C25.5691 7.18267 25.8718 7.02613 26.1954 7.02613H35.7421H36.3877C36.9889 7.02613 37.4802 6.53268 37.4802 5.92891V1.09723C37.4802 0.493454 36.9889 0 36.3877 0H11.6542H1.00323C0.114168 0 -0.334076 1.07487 0.289309 1.70995L5.20366 6.7235C5.39216 6.91581 5.64893 7.02315 5.91758 7.02315H16.0728V7.1618C16.0728 7.1618 15.2446 8.08609 14.3704 9.28767L6.45934 20.3956C6.33763 20.5656 6.27232 20.7713 6.27232 20.98V26.7211C6.27232 27.2756 6.72056 27.7259 7.2727 27.7259H56.5186C57.4062 27.7259 57.8544 26.651 57.2325 26.0159L52.3182 21.0024C52.1297 20.8101 51.8729 20.7027 51.6043 20.7027H15.7493V20.7042Z" fill="#FFF7E6"/>
</g>
<defs>
<clipPath id="clip0_84_3196">
<rect width="139" height="34.6298" fill="white"/>
</clipPath>
</defs>
</svg>
