<svg width="579" height="144" viewBox="0 0 579 144" fill="none" xmlns="http://www.w3.org/2000/svg">
<path d="M201.12 7.84722L248.113 55.4204L248.125 55.4389L248.137 55.4513C253.291 60.6082 258.031 66.605 258.08 66.6667L260.302 69.4891H271.874V52.5918H291.501V125.801L228.036 61.2875L228.017 61.269L227.999 61.2505C223.005 56.2542 217.124 48.9171 217.068 48.843L214.846 46.0639H203.114V63.7764H183.487V7.85341H201.114M202.472 0.436114H180.247C177.951 0.436114 176.087 2.30124 176.087 4.59868V67.0126C176.087 69.3039 177.957 71.1752 180.247 71.1752H206.36C208.656 71.1752 210.52 69.31 210.52 67.0126V53.4626H211.285C211.285 53.4626 217.408 61.1208 222.765 66.4815L298.913 143.891V49.3433C298.913 47.0458 297.056 45.1807 294.76 45.1807C288.131 45.1807 275.232 45.1807 268.616 45.1807C266.32 45.1807 264.474 47.0458 264.474 49.3433V62.078H263.9C263.9 62.078 258.926 55.7601 253.377 50.2079L205.428 1.66512C204.644 0.874598 203.583 0.429932 202.466 0.429932L202.472 0.436114Z" fill="#FFF7E6"/>
<path d="M347.758 52.5918V107.891H328.131V52.5918H347.758ZM351.004 45.1807H324.891C322.595 45.1807 320.731 47.0458 320.731 49.3433V111.14C320.731 113.437 322.595 115.302 324.891 115.302H351.004C353.3 115.302 355.164 113.437 355.164 111.14V49.3495C355.164 47.052 353.3 45.1869 351.004 45.1869V45.1807Z" fill="#FFF7E6"/>
<path d="M493.469 7.84724V22.126H419.648H415.586C409.211 22.126 404.02 27.3199 404.02 33.6997V107.891H384.394V33.6997C384.394 27.3199 379.203 22.126 372.828 22.126H260.191C259.234 22.126 258.296 21.7369 257.623 21.0514L244.638 7.84724H493.482M496.71 0.436127H236.874C233.183 0.436127 231.319 4.88899 233.905 7.51993L252.328 26.2453C254.396 28.3513 257.222 29.5309 260.172 29.5309H372.809C375.105 29.5309 376.969 31.396 376.969 33.6935V111.133C376.969 113.431 378.833 115.296 381.129 115.296H407.242C409.538 115.296 411.402 113.431 411.402 111.133V33.6935C411.402 31.396 413.266 29.5309 415.562 29.5309H419.623H496.691C498.987 29.5309 500.851 27.6658 500.851 25.3683V4.59869C500.851 2.30125 498.987 0.436127 496.691 0.436127H496.71Z" fill="#FFF7E6"/>
<path d="M548.695 7.84724H556.102H567.044L552.016 23.1203C549.874 25.3004 548.689 28.1846 548.689 31.2416V107.891H529.063V78.4443C529.063 72.0645 523.872 66.8706 517.497 66.8706H471.868C465.492 66.8706 460.302 72.0645 460.302 78.4443V107.891H440.675V52.5918H513.059C519.435 52.5918 524.625 47.3979 524.625 41.0182V7.84724H548.695ZM556.102 0.436127H521.385C519.089 0.436127 517.225 2.30125 517.225 4.59869V41.0182C517.225 43.3156 515.361 45.1807 513.065 45.1807H437.435C435.139 45.1807 433.275 47.0458 433.275 49.3433V111.14C433.275 113.437 435.139 115.302 437.435 115.302H463.548C465.844 115.302 467.708 113.437 467.708 111.14V78.4443C467.708 76.1468 469.572 74.2817 471.868 74.2817H517.497C519.792 74.2817 521.656 76.1468 521.656 78.4443V111.14C521.656 113.437 523.52 115.302 525.816 115.302H551.929C554.225 115.302 556.089 113.437 556.089 111.14V31.2416C556.089 30.1485 556.521 29.0986 557.287 28.3204L577.746 7.51993C580.339 4.88899 578.475 0.436127 574.778 0.436127H556.089H556.102Z" fill="#FFF7E6"/>
<path d="M149.406 7.84724V22.126H142.178H109.887C106.159 22.126 102.642 23.9355 100.475 26.9741L91.3346 39.7706L82.9656 51.4925H149.406V63.4862H80.3548C76.627 63.4862 73.1091 65.2957 70.9427 68.3343L67.1532 73.6394C64.0364 77.9008 61.4072 80.4144 61.3949 80.4267L59.0557 82.6254V93.6309H214.198L228.245 107.91H34.4608V88.4122L66.2583 43.9332L73.4547 33.8664L81.8361 22.1445H26.9373L12.8901 7.86578H55.2724H111.251H149.406M152.27 0.436127H49.4276H5.13821C1.44743 0.436127 -0.416477 4.88899 2.16954 7.51993L22.6046 28.2895C23.3884 29.0862 24.4562 29.5309 25.5733 29.5309H67.4248L60.2284 39.5977L27.826 84.9228C27.3199 85.6268 27.0484 86.4791 27.0484 87.3438V111.127C27.0484 113.425 28.9123 115.29 31.2082 115.29H235.985C239.676 115.29 241.54 110.837 238.954 108.206L218.518 87.4364C217.735 86.6397 216.667 86.195 215.55 86.195H66.4558V85.8121C66.4558 85.8121 69.517 82.9403 73.1523 77.9625L76.9665 72.6203C77.7503 71.5272 79.0094 70.8787 80.3548 70.8787H152.652C154.948 70.8787 156.812 69.0136 156.812 66.7162V48.2316C156.812 45.9342 154.948 44.0691 152.652 44.0691H97.3645L106.505 31.2725C107.289 30.1794 108.548 29.5309 109.893 29.5309H149.591H152.276C154.775 29.5309 156.818 27.4867 156.818 24.9854V4.9816C156.818 2.48035 154.775 0.436127 152.276 0.436127H152.27Z" fill="#FFF7E6"/>
</svg>
