<svg width="339" height="66" viewBox="0 0 339 66" fill="none" xmlns="http://www.w3.org/2000/svg">
<g clip-path="url(#clip0_12_54)">
<path d="M118.698 3.56757L145.938 31.1235C148.936 34.1202 151.683 37.595 151.712 37.6307L152.782 38.9935H158.413V29.2826C161.996 29.2826 167.498 29.2826 171.081 29.2826V62.4324H159.969L133.385 35.4259C130.487 32.5291 127.083 28.2837 127.047 28.2409L125.977 26.8995H120.253V37.0742H107.586V3.56757H118.698ZM120.189 0H104.017V40.6417H123.822V30.467H124.264C124.264 30.467 127.783 34.8694 130.866 37.9447L158.477 65.9929H174.649V25.7079H154.845V35.4188H154.517C154.517 35.4188 151.655 31.787 148.465 28.5976L120.189 0Z" fill="#FD4755"/>
<path d="M203.424 29.2755V62.4253H190.757V29.2755H203.424ZM206.993 25.7079H187.188V65.9929H206.993V25.7079Z" fill="#FD4755"/>
<path d="M287.216 3.56757V13.1501H244.075H239.343H235.775V62.4253H223.107V13.1501H151.219L141.785 3.56757H287.216ZM290.785 0H133.263L149.728 16.7176H219.546V65.9929H239.35V16.7176H244.082H290.792V0H290.785Z" fill="#FD4755"/>
<path d="M322.543 3.56757H330.486L320.002 14.2203L318.974 15.2621V62.4324H306.307V38.8651H268.147V62.4324H255.479V29.2826H306.307V3.56757H322.543ZM322.543 0H302.738V25.7079H251.911V65.9929H271.715V42.4255H302.738V65.9929H322.543V16.7176L339 0H322.536H322.543Z" fill="#FD4755"/>
<path d="M89.3657 3.56757V13.1501H85.2121H64.7227H62.8885L61.818 14.6413L55.8446 22.9965L51.8124 28.6404H89.3657V36.9101H45.9032L44.8327 38.4013L41.9352 42.4541C40.1011 44.9656 38.5453 46.4426 38.5381 46.4497L37.4105 47.5057V52.8357H126.22L135.654 62.4182H21.8811V50.3027L40.565 24.1881C42.5133 21.5267 44.3759 19.4432 44.3974 19.4218L45.3109 18.4015V13.1358H17.9559L8.52121 3.56757H31.1873H66.7352H89.3657ZM92.7128 0H31.1802H0L16.4643 16.7176H41.7496V17.0458C41.7496 17.0458 39.7728 19.2435 37.6817 22.1047L18.3199 49.1682V65.9929H144.183L127.718 49.2752H40.9789V49.0541C40.9789 49.0541 42.7416 47.4058 44.8327 44.5447L47.7445 40.4776H92.9411V25.0729H58.7564L64.7298 16.7176H88.7876H92.7199C92.8412 16.7176 92.9411 16.6177 92.9411 16.4964V0.221189C92.9411 0.0998919 92.8412 0 92.7199 0H92.7128Z" fill="#FD4755"/>
</g>
<defs>
<clipPath id="clip0_12_54">
<rect width="339" height="66" fill="white"/>
</clipPath>
</defs>
</svg>
