<svg width="385" height="60" viewBox="0 0 385 60" fill="none" xmlns="http://www.w3.org/2000/svg">
<g filter="url(#filter0_d_84_3149)">
<rect x="2" y="1" width="381" height="56" rx="28" fill="url(#paint0_linear_84_3149)"/>
<rect x="3.5" y="2.5" width="378" height="53" rx="26.5" stroke="#20A886" stroke-width="3"/>
</g>
<path d="M109.374 37V21.7621H115.88V23.8166H111.556V28.2896H115.323V30.3441H111.556V34.817H115.88V37H109.374ZM117.209 37V21.7621H119.306L122.602 30.9434H122.645V21.7621H124.828V37H122.773L119.435 27.8401H119.392V37H117.209ZM128.238 37V23.8166H125.713V21.7621H132.946V23.8166H130.421V37H128.238ZM133.91 37V21.7621H140.416V23.8166H136.093V28.2896H139.86V30.3441H136.093V34.817H140.416V37H133.91ZM144.014 23.8166V28.5678H145.255C145.641 28.5678 145.947 28.5178 146.176 28.418C146.404 28.3038 146.582 28.1469 146.711 27.9471C146.825 27.7474 146.903 27.5048 146.946 27.2195C146.989 26.9199 147.01 26.5774 147.01 26.1922C147.01 25.807 146.989 25.4717 146.946 25.1863C146.903 24.8867 146.818 24.6299 146.689 24.4159C146.418 24.0164 145.905 23.8166 145.148 23.8166H144.014ZM141.831 37V21.7621H145.341C147.909 21.7621 149.193 23.2531 149.193 26.235C149.193 27.1339 149.051 27.8972 148.765 28.525C148.494 29.1528 148.009 29.6593 147.31 30.0445L149.664 37H147.353L145.32 30.4939H144.014V37H141.831ZM156.948 37V30.5581L153.951 21.7621H156.263L158.018 27.8187H158.061L159.816 21.7621H162.127L159.131 30.5581V37H156.948ZM163.083 25.3575C163.083 24.744 163.19 24.2019 163.404 23.731C163.618 23.2602 163.904 22.8678 164.261 22.5539C164.603 22.2543 164.988 22.026 165.416 21.8691C165.859 21.7121 166.301 21.6337 166.743 21.6337C167.185 21.6337 167.621 21.7121 168.049 21.8691C168.491 22.026 168.89 22.2543 169.247 22.5539C169.59 22.8678 169.868 23.2602 170.082 23.731C170.296 24.2019 170.403 24.744 170.403 25.3575V33.4045C170.403 34.0466 170.296 34.5959 170.082 35.0525C169.868 35.509 169.59 35.8871 169.247 36.1867C168.89 36.5006 168.491 36.736 168.049 36.893C167.621 37.0499 167.185 37.1284 166.743 37.1284C166.301 37.1284 165.859 37.0499 165.416 36.893C164.988 36.736 164.603 36.5006 164.261 36.1867C163.904 35.8871 163.618 35.509 163.404 35.0525C163.19 34.5959 163.083 34.0466 163.083 33.4045V25.3575ZM165.266 33.4045C165.266 33.9324 165.409 34.3248 165.694 34.5816C165.994 34.8242 166.344 34.9454 166.743 34.9454C167.143 34.9454 167.485 34.8242 167.77 34.5816C168.07 34.3248 168.22 33.9324 168.22 33.4045V25.3575C168.22 24.8296 168.07 24.4444 167.77 24.2019C167.485 23.945 167.143 23.8166 166.743 23.8166C166.344 23.8166 165.994 23.945 165.694 24.2019C165.409 24.4444 165.266 24.8296 165.266 25.3575V33.4045ZM179.387 21.7621V33.5757C179.387 34.0751 179.294 34.5388 179.109 34.9669C178.937 35.3806 178.688 35.7516 178.359 36.0797C178.031 36.4079 177.653 36.6647 177.225 36.8502C176.797 37.0357 176.341 37.1284 175.856 37.1284C175.37 37.1284 174.914 37.0357 174.486 36.8502C174.072 36.6647 173.701 36.4079 173.373 36.0797C173.045 35.7516 172.788 35.3806 172.602 34.9669C172.417 34.5388 172.324 34.0751 172.324 33.5757V21.7621H174.507V33.3617C174.507 33.9039 174.636 34.3034 174.892 34.5602C175.149 34.817 175.47 34.9454 175.856 34.9454C176.241 34.9454 176.562 34.817 176.819 34.5602C177.075 34.3034 177.204 33.9039 177.204 33.3617V21.7621H179.387ZM183.62 23.8166V28.5678H184.861C185.246 28.5678 185.553 28.5178 185.781 28.418C186.009 28.3038 186.188 28.1469 186.316 27.9471C186.43 27.7474 186.509 27.5048 186.552 27.2195C186.594 26.9199 186.616 26.5774 186.616 26.1922C186.616 25.807 186.594 25.4717 186.552 25.1863C186.509 24.8867 186.423 24.6299 186.295 24.4159C186.024 24.0164 185.51 23.8166 184.754 23.8166H183.62ZM181.437 37V21.7621H184.946C187.515 21.7621 188.799 23.2531 188.799 26.235C188.799 27.1339 188.656 27.8972 188.371 28.525C188.1 29.1528 187.615 29.6593 186.915 30.0445L189.27 37H186.958L184.925 30.4939H183.62V37H181.437ZM201.583 26.1494H199.4V25.6572C199.4 25.1578 199.278 24.7298 199.036 24.3731C198.807 24.0021 198.415 23.8166 197.859 23.8166C197.559 23.8166 197.316 23.8737 197.131 23.9878C196.946 24.102 196.796 24.2447 196.682 24.4159C196.567 24.6014 196.489 24.8154 196.446 25.0579C196.403 25.2862 196.382 25.5288 196.382 25.7856C196.382 26.0852 196.389 26.3349 196.403 26.5346C196.432 26.7344 196.489 26.9127 196.575 27.0697C196.66 27.2266 196.781 27.3622 196.938 27.4763C197.11 27.5904 197.338 27.7046 197.623 27.8187L199.293 28.4822C199.778 28.6677 200.17 28.8888 200.47 29.1456C200.769 29.3882 201.005 29.6735 201.176 30.0017C201.333 30.3441 201.44 30.7365 201.497 31.1788C201.554 31.6068 201.583 32.099 201.583 32.6555C201.583 33.2975 201.518 33.8968 201.39 34.4532C201.262 34.9954 201.055 35.4591 200.769 35.8443C200.47 36.2438 200.077 36.5577 199.592 36.786C199.107 37.0143 198.515 37.1284 197.816 37.1284C197.288 37.1284 196.796 37.0357 196.339 36.8502C195.883 36.6647 195.49 36.4079 195.162 36.0797C194.834 35.7516 194.57 35.3735 194.37 34.9454C194.185 34.5031 194.092 34.0252 194.092 33.5115V32.6983H196.275V33.3831C196.275 33.7826 196.389 34.1465 196.617 34.4746C196.86 34.7885 197.259 34.9454 197.816 34.9454C198.187 34.9454 198.472 34.8955 198.672 34.7956C198.886 34.6815 199.05 34.5246 199.164 34.3248C199.278 34.1251 199.343 33.8896 199.357 33.6186C199.385 33.3332 199.4 33.0193 199.4 32.6769C199.4 32.2774 199.385 31.9492 199.357 31.6924C199.328 31.4356 199.271 31.2287 199.186 31.0718C199.086 30.9148 198.95 30.7864 198.779 30.6865C198.622 30.5867 198.408 30.4797 198.137 30.3655L196.575 29.7235C195.633 29.3382 194.998 28.8317 194.67 28.204C194.356 27.5619 194.199 26.7629 194.199 25.807C194.199 25.2363 194.277 24.6941 194.434 24.1805C194.591 23.6668 194.827 23.2245 195.141 22.8536C195.44 22.4826 195.818 22.1901 196.275 21.9761C196.746 21.7478 197.302 21.6337 197.944 21.6337C198.486 21.6337 198.979 21.7335 199.421 21.9333C199.878 22.133 200.27 22.397 200.598 22.7251C201.254 23.41 201.583 24.1947 201.583 25.0793V26.1494ZM210.149 32.6555V33.5971C210.149 34.068 210.056 34.5174 209.87 34.9454C209.699 35.3592 209.457 35.7302 209.143 36.0583C208.829 36.3865 208.458 36.6504 208.03 36.8502C207.616 37.0357 207.167 37.1284 206.681 37.1284C206.268 37.1284 205.847 37.0713 205.419 36.9572C204.991 36.8431 204.606 36.6433 204.263 36.358C203.921 36.0726 203.635 35.7088 203.407 35.2665C203.193 34.8099 203.086 34.2321 203.086 33.5329V25.1435C203.086 24.6442 203.172 24.1805 203.343 23.7524C203.514 23.3244 203.757 22.9534 204.07 22.6395C204.384 22.3257 204.755 22.0831 205.183 21.9119C205.626 21.7264 206.111 21.6337 206.639 21.6337C207.666 21.6337 208.501 21.969 209.143 22.6395C209.457 22.9677 209.699 23.3601 209.87 23.8166C210.056 24.2589 210.149 24.744 210.149 25.2719V26.128H207.966V25.4003C207.966 24.9723 207.844 24.6014 207.602 24.2875C207.359 23.9736 207.031 23.8166 206.617 23.8166C206.075 23.8166 205.711 23.9878 205.526 24.3303C205.355 24.6584 205.269 25.0793 205.269 25.593V33.3831C205.269 33.8254 205.362 34.1964 205.547 34.496C205.747 34.7956 206.096 34.9454 206.596 34.9454C206.739 34.9454 206.888 34.924 207.045 34.8812C207.217 34.8242 207.373 34.7386 207.516 34.6244C207.645 34.5103 207.752 34.3533 207.837 34.1536C207.923 33.9538 207.966 33.7042 207.966 33.4045V32.6555H210.149ZM214.113 23.8166V28.5678H215.354C215.739 28.5678 216.046 28.5178 216.274 28.418C216.503 28.3038 216.681 28.1469 216.809 27.9471C216.923 27.7474 217.002 27.5048 217.045 27.2195C217.087 26.9199 217.109 26.5774 217.109 26.1922C217.109 25.807 217.087 25.4717 217.045 25.1863C217.002 24.8867 216.916 24.6299 216.788 24.4159C216.517 24.0164 216.003 23.8166 215.247 23.8166H214.113ZM211.93 37V21.7621H215.44C218.008 21.7621 219.292 23.2531 219.292 26.235C219.292 27.1339 219.149 27.8972 218.864 28.525C218.593 29.1528 218.108 29.6593 217.409 30.0445L219.763 37H217.451L215.418 30.4939H214.113V37H211.93ZM221.042 37V21.7621H227.548V23.8166H223.225V28.2896H226.992V30.3441H223.225V34.817H227.548V37H221.042ZM228.963 37V21.7621H235.469V23.8166H231.146V28.2896H234.913V30.3441H231.146V34.817H235.469V37H228.963ZM236.799 37V21.7621H238.896L242.192 30.9434H242.235V21.7621H244.418V37H242.363L239.024 27.8401H238.982V37H236.799ZM247.828 37V23.8166H245.302V21.7621H252.536V23.8166H250.011V37H247.828ZM253.564 37V21.7621H255.747V37H253.564ZM257.868 37V21.7621H259.965L262.769 29.8305H262.812L265.594 21.7621H267.713V37H265.53V27.7331H265.487L263.325 34.282H262.234L260.094 27.7331H260.051V37H257.868ZM269.76 37V21.7621H276.266V23.8166H271.943V28.2896H275.71V30.3441H271.943V34.817H276.266V37H269.76Z" fill="#FFF7E6"/>
<defs>
<filter id="filter0_d_84_3149" x="0" y="0" width="385" height="60" filterUnits="userSpaceOnUse" color-interpolation-filters="sRGB">
<feFlood flood-opacity="0" result="BackgroundImageFix"/>
<feColorMatrix in="SourceAlpha" type="matrix" values="0 0 0 0 0 0 0 0 0 0 0 0 0 0 0 0 0 0 127 0" result="hardAlpha"/>
<feOffset dy="1"/>
<feGaussianBlur stdDeviation="1"/>
<feColorMatrix type="matrix" values="0 0 0 0 0.776471 0 0 0 0 0.894118 0 0 0 0 0.964706 0 0 0 0.05 0"/>
<feBlend mode="normal" in2="BackgroundImageFix" result="effect1_dropShadow_84_3149"/>
<feBlend mode="normal" in="SourceGraphic" in2="effect1_dropShadow_84_3149" result="shape"/>
</filter>
<linearGradient id="paint0_linear_84_3149" x1="2" y1="29" x2="383" y2="29" gradientUnits="userSpaceOnUse">
<stop stop-color="#0ADAA6"/>
<stop offset="0.423077" stop-color="#0C7057"/>
<stop offset="0.600962" stop-color="#0C7057"/>
<stop offset="1" stop-color="#0ADAA6"/>
</linearGradient>
</defs>
</svg>
