<svg width="287" height="60" viewBox="0 0 287 60" fill="none" xmlns="http://www.w3.org/2000/svg">
<g filter="url(#filter0_d_103_44)">
<rect x="2" y="1" width="283" height="56" rx="28" fill="url(#paint0_linear_103_44)"/>
<rect x="3.5" y="2.5" width="280" height="53" rx="26.5" stroke="#20A886" stroke-width="3"/>
</g>
<path d="M121.146 32.6555V33.5971C121.146 34.068 121.053 34.5174 120.868 34.9454C120.697 35.3592 120.454 35.7302 120.14 36.0583C119.826 36.3865 119.455 36.6504 119.027 36.8502C118.613 37.0357 118.164 37.1284 117.679 37.1284C117.265 37.1284 116.844 37.0713 116.416 36.9572C115.988 36.8431 115.603 36.6433 115.261 36.358C114.918 36.0726 114.633 35.7088 114.404 35.2665C114.19 34.8099 114.083 34.2321 114.083 33.5329V25.1435C114.083 24.6442 114.169 24.1805 114.34 23.7524C114.511 23.3244 114.754 22.9534 115.068 22.6395C115.382 22.3257 115.753 22.0831 116.181 21.9119C116.623 21.7264 117.108 21.6337 117.636 21.6337C118.663 21.6337 119.498 21.969 120.14 22.6395C120.454 22.9677 120.697 23.3601 120.868 23.8166C121.053 24.2589 121.146 24.744 121.146 25.2719V26.128H118.963V25.4003C118.963 24.9723 118.842 24.6014 118.599 24.2875C118.357 23.9736 118.028 23.8166 117.615 23.8166C117.073 23.8166 116.709 23.9878 116.523 24.3303C116.352 24.6584 116.266 25.0793 116.266 25.593V33.3831C116.266 33.8254 116.359 34.1964 116.545 34.496C116.744 34.7956 117.094 34.9454 117.593 34.9454C117.736 34.9454 117.886 34.924 118.043 34.8812C118.214 34.8242 118.371 34.7386 118.514 34.6244C118.642 34.5103 118.749 34.3533 118.835 34.1536C118.92 33.9538 118.963 33.7042 118.963 33.4045V32.6555H121.146ZM122.799 25.3575C122.799 24.744 122.906 24.2019 123.12 23.731C123.334 23.2602 123.619 22.8678 123.976 22.5539C124.318 22.2543 124.703 22.026 125.132 21.8691C125.574 21.7121 126.016 21.6337 126.458 21.6337C126.901 21.6337 127.336 21.7121 127.764 21.8691C128.206 22.026 128.606 22.2543 128.962 22.5539C129.305 22.8678 129.583 23.2602 129.797 23.731C130.011 24.2019 130.118 24.744 130.118 25.3575V33.4045C130.118 34.0466 130.011 34.5959 129.797 35.0525C129.583 35.509 129.305 35.8871 128.962 36.1867C128.606 36.5006 128.206 36.736 127.764 36.893C127.336 37.0499 126.901 37.1284 126.458 37.1284C126.016 37.1284 125.574 37.0499 125.132 36.893C124.703 36.736 124.318 36.5006 123.976 36.1867C123.619 35.8871 123.334 35.509 123.12 35.0525C122.906 34.5959 122.799 34.0466 122.799 33.4045V25.3575ZM124.982 33.4045C124.982 33.9324 125.124 34.3248 125.41 34.5816C125.709 34.8242 126.059 34.9454 126.458 34.9454C126.858 34.9454 127.2 34.8242 127.486 34.5816C127.785 34.3248 127.935 33.9324 127.935 33.4045V25.3575C127.935 24.8296 127.785 24.4444 127.486 24.2019C127.2 23.945 126.858 23.8166 126.458 23.8166C126.059 23.8166 125.709 23.945 125.41 24.2019C125.124 24.4444 124.982 24.8296 124.982 25.3575V33.4045ZM131.954 37V21.7621H134.051L137.347 30.9434H137.39V21.7621H139.573V37H137.518L134.18 27.8401H134.137V37H131.954ZM141.549 37V21.7621H148.055V23.8166H143.732V28.4394H147.499V30.4939H143.732V37H141.549ZM149.534 37V21.7621H151.717V37H149.534ZM156.021 23.8166V28.5678H157.262C157.648 28.5678 157.954 28.5178 158.183 28.418C158.411 28.3038 158.589 28.1469 158.718 27.9471C158.832 27.7474 158.91 27.5048 158.953 27.2195C158.996 26.9199 159.017 26.5774 159.017 26.1922C159.017 25.807 158.996 25.4717 158.953 25.1863C158.91 24.8867 158.825 24.6299 158.696 24.4159C158.425 24.0164 157.912 23.8166 157.155 23.8166H156.021ZM153.838 37V21.7621H157.348C159.916 21.7621 161.2 23.2531 161.2 26.235C161.2 27.1339 161.058 27.8972 160.772 28.525C160.501 29.1528 160.016 29.6593 159.317 30.0445L161.671 37H159.36L157.327 30.4939H156.021V37H153.838ZM162.951 37V21.7621H165.048L167.852 29.8305H167.894L170.677 21.7621H172.795V37H170.612V27.7331H170.57L168.408 34.282H167.317L165.176 27.7331H165.134V37H162.951Z" fill="#FFF7E6"/>
<defs>
<filter id="filter0_d_103_44" x="0" y="0" width="287" height="60" filterUnits="userSpaceOnUse" color-interpolation-filters="sRGB">
<feFlood flood-opacity="0" result="BackgroundImageFix"/>
<feColorMatrix in="SourceAlpha" type="matrix" values="0 0 0 0 0 0 0 0 0 0 0 0 0 0 0 0 0 0 127 0" result="hardAlpha"/>
<feOffset dy="1"/>
<feGaussianBlur stdDeviation="1"/>
<feColorMatrix type="matrix" values="0 0 0 0 0.776471 0 0 0 0 0.894118 0 0 0 0 0.964706 0 0 0 0.05 0"/>
<feBlend mode="normal" in2="BackgroundImageFix" result="effect1_dropShadow_103_44"/>
<feBlend mode="normal" in="SourceGraphic" in2="effect1_dropShadow_103_44" result="shape"/>
</filter>
<linearGradient id="paint0_linear_103_44" x1="2" y1="29" x2="285" y2="29" gradientUnits="userSpaceOnUse">
<stop stop-color="#0ADAA6"/>
<stop offset="0.423077" stop-color="#0C7057"/>
<stop offset="0.600962" stop-color="#0C7057"/>
<stop offset="1" stop-color="#0ADAA6"/>
</linearGradient>
</defs>
</svg>
