<svg width="339" height="60" viewBox="0 0 339 60" fill="none" xmlns="http://www.w3.org/2000/svg">
<g filter="url(#filter0_d_73_2913)">
<rect x="2" y="1" width="335" height="56" rx="28" fill="#822727"/>
<rect x="3.5" y="2.5" width="332" height="53" rx="26.5" stroke="#FD4755" stroke-width="3"/>
</g>
<path d="M128.713 27.1494H126.53V26.6572C126.53 26.1578 126.409 25.7298 126.167 25.3731C125.938 25.0021 125.546 24.8166 124.99 24.8166C124.69 24.8166 124.447 24.8737 124.262 24.9878C124.076 25.102 123.927 25.2447 123.812 25.4159C123.698 25.6014 123.62 25.8154 123.577 26.0579C123.534 26.2862 123.513 26.5288 123.513 26.7856C123.513 27.0852 123.52 27.3349 123.534 27.5346C123.563 27.7344 123.62 27.9127 123.705 28.0697C123.791 28.2266 123.912 28.3622 124.069 28.4763C124.24 28.5904 124.469 28.7046 124.754 28.8187L126.423 29.4822C126.909 29.6677 127.301 29.8888 127.601 30.1456C127.9 30.3882 128.136 30.6735 128.307 31.0017C128.464 31.3441 128.571 31.7365 128.628 32.1788C128.685 32.6068 128.713 33.099 128.713 33.6555C128.713 34.2975 128.649 34.8968 128.521 35.4532C128.392 35.9954 128.186 36.4591 127.9 36.8443C127.601 37.2438 127.208 37.5577 126.723 37.786C126.238 38.0143 125.646 38.1284 124.947 38.1284C124.419 38.1284 123.927 38.0357 123.47 37.8502C123.013 37.6647 122.621 37.4079 122.293 37.0797C121.965 36.7516 121.701 36.3735 121.501 35.9454C121.316 35.5031 121.223 35.0252 121.223 34.5115V33.6983H123.406V34.3831C123.406 34.7826 123.52 35.1465 123.748 35.4746C123.991 35.7885 124.39 35.9454 124.947 35.9454C125.318 35.9454 125.603 35.8955 125.803 35.7956C126.017 35.6815 126.181 35.5246 126.295 35.3248C126.409 35.1251 126.473 34.8896 126.488 34.6186C126.516 34.3332 126.53 34.0193 126.53 33.6769C126.53 33.2774 126.516 32.9492 126.488 32.6924C126.459 32.4356 126.402 32.2287 126.316 32.0718C126.217 31.9148 126.081 31.7864 125.91 31.6865C125.753 31.5867 125.539 31.4797 125.268 31.3655L123.705 30.7235C122.764 30.3382 122.129 29.8317 121.801 29.204C121.487 28.5619 121.33 27.7629 121.33 26.807C121.33 26.2363 121.408 25.6941 121.565 25.1805C121.722 24.6668 121.958 24.2245 122.272 23.8536C122.571 23.4826 122.949 23.1901 123.406 22.9761C123.877 22.7478 124.433 22.6337 125.075 22.6337C125.617 22.6337 126.11 22.7335 126.552 22.9333C127.008 23.133 127.401 23.397 127.729 23.7251C128.385 24.41 128.713 25.1947 128.713 26.0793V27.1494ZM131.779 38V24.8166H129.254V22.7621H136.488V24.8166H133.962V38H131.779ZM140.69 32.671L139.62 27.1494H139.577L138.507 32.671H140.69ZM135.296 38L138.699 22.7621H140.518L143.921 38H141.738L141.096 34.7256H138.121L137.479 38H135.296ZM147.179 24.8166V29.5678H148.42C148.806 29.5678 149.112 29.5178 149.341 29.418C149.569 29.3038 149.747 29.1469 149.876 28.9471C149.99 28.7474 150.068 28.5048 150.111 28.2195C150.154 27.9199 150.175 27.5774 150.175 27.1922C150.175 26.807 150.154 26.4717 150.111 26.1863C150.068 25.8867 149.983 25.6299 149.854 25.4159C149.583 25.0164 149.07 24.8166 148.313 24.8166H147.179ZM144.996 38V22.7621H148.506C151.074 22.7621 152.358 24.2531 152.358 27.235C152.358 28.1339 152.216 28.8972 151.93 29.525C151.659 30.1528 151.174 30.6593 150.475 31.0445L152.829 38H150.518L148.485 31.4939H147.179V38H144.996ZM155.166 38V24.8166H152.641V22.7621H159.875V24.8166H157.349V38H155.166ZM169.218 32.671L168.148 27.1494H168.105L167.035 32.671H169.218ZM163.825 38L167.228 22.7621H169.047L172.45 38H170.267L169.625 34.7256H166.65L166.008 38H163.825ZM184.43 33.6555V34.5971C184.43 35.068 184.337 35.5174 184.152 35.9454C183.98 36.3592 183.738 36.7302 183.424 37.0583C183.11 37.3865 182.739 37.6504 182.311 37.8502C181.897 38.0357 181.448 38.1284 180.963 38.1284C180.549 38.1284 180.128 38.0713 179.7 37.9572C179.272 37.8431 178.887 37.6433 178.544 37.358C178.202 37.0726 177.917 36.7088 177.688 36.2665C177.474 35.8099 177.367 35.2321 177.367 34.5329V26.1435C177.367 25.6442 177.453 25.1805 177.624 24.7524C177.795 24.3244 178.038 23.9534 178.352 23.6395C178.666 23.3257 179.037 23.0831 179.465 22.9119C179.907 22.7264 180.392 22.6337 180.92 22.6337C181.947 22.6337 182.782 22.969 183.424 23.6395C183.738 23.9677 183.98 24.3601 184.152 24.8166C184.337 25.2589 184.43 25.744 184.43 26.2719V27.128H182.247V26.4003C182.247 25.9723 182.125 25.6014 181.883 25.2875C181.64 24.9736 181.312 24.8166 180.898 24.8166C180.356 24.8166 179.992 24.9878 179.807 25.3303C179.636 25.6584 179.55 26.0793 179.55 26.593V34.3831C179.55 34.8254 179.643 35.1964 179.828 35.496C180.028 35.7956 180.378 35.9454 180.877 35.9454C181.02 35.9454 181.17 35.924 181.327 35.8812C181.498 35.8242 181.655 35.7386 181.797 35.6244C181.926 35.5103 182.033 35.3533 182.118 35.1536C182.204 34.9538 182.247 34.7042 182.247 34.4045V33.6555H184.43ZM186.211 38V22.7621H188.394V29.2896H191.09V22.7621H193.273V38H191.09V31.2157H188.394V38H186.211ZM199.732 32.671L198.662 27.1494H198.619L197.549 32.671H199.732ZM194.339 38L197.742 22.7621H199.561L202.964 38H200.781L200.139 34.7256H197.164L196.522 38H194.339ZM204.039 38V22.7621H206.222V35.817H210.545V38H204.039ZM211.96 38V22.7621H214.143V35.817H218.466V38H211.96ZM219.881 38V22.7621H226.387V24.8166H222.064V29.2896H225.83V31.3441H222.064V35.817H226.387V38H219.881ZM227.716 38V22.7621H229.814L233.109 31.9434H233.152V22.7621H235.335V38H233.281L229.942 28.8401H229.899V38H227.716ZM237.183 26.3575C237.183 25.744 237.29 25.2019 237.504 24.731C237.718 24.2602 238.003 23.8678 238.36 23.5539C238.702 23.2543 239.088 23.026 239.516 22.8691C239.958 22.7121 240.4 22.6337 240.843 22.6337C241.285 22.6337 241.72 22.7121 242.148 22.8691C242.59 23.026 242.99 23.2543 243.347 23.5539C243.689 23.8678 243.967 24.2602 244.181 24.731C244.395 25.2019 244.502 25.744 244.502 26.3575V27.128H242.319V26.3575C242.319 25.8296 242.17 25.4444 241.87 25.2019C241.585 24.945 241.242 24.8166 240.843 24.8166C240.443 24.8166 240.094 24.945 239.794 25.2019C239.509 25.4444 239.366 25.8296 239.366 26.3575V34.4045C239.366 34.9324 239.509 35.3248 239.794 35.5816C240.094 35.8242 240.443 35.9454 240.843 35.9454C241.242 35.9454 241.585 35.8242 241.87 35.5816C242.17 35.3248 242.319 34.9324 242.319 34.4045V31.5367H240.586V29.6106H244.502V34.4045C244.502 35.0466 244.395 35.5959 244.181 36.0525C243.967 36.509 243.689 36.8871 243.347 37.1867C242.99 37.5006 242.59 37.736 242.148 37.893C241.72 38.0499 241.285 38.1284 240.843 38.1284C240.4 38.1284 239.958 38.0499 239.516 37.893C239.088 37.736 238.702 37.5006 238.36 37.1867C238.003 36.8871 237.718 36.509 237.504 36.0525C237.29 35.5959 237.183 35.0466 237.183 34.4045V26.3575ZM246.424 38V22.7621H252.93V24.8166H248.607V29.2896H252.373V31.3441H248.607V35.817H252.93V38H246.424Z" fill="#FFF7E6"/>
<g clip-path="url(#clip0_73_2913)">
<path d="M98.3178 37.359L97.6903 36.7612C97.1815 36.2742 97.0933 35.4072 97.4936 34.7975L108.229 18.6604C108.63 18.0507 108.541 17.1797 108.033 16.6967C107.524 16.2137 106.778 16.2849 106.343 16.863L94.9292 32.3468C94.4984 32.9249 93.7488 33.0001 93.24 32.5131L92.6124 31.9153C91.8865 31.2225 90.818 31.3492 90.2244 32.1964C89.6308 33.0436 89.7394 34.2907 90.4653 34.9836L91.1403 35.6289C91.6287 36.0961 91.7305 36.9235 91.3743 37.5332L89.2136 41.2151C88.8575 41.8248 88.9592 42.6523 89.4477 43.1194L89.5426 43.2105C90.0311 43.6777 90.7468 43.6302 91.1878 43.0996L93.8539 39.8928C94.2949 39.3623 95.0106 39.3148 95.4991 39.7819L96.1741 40.4233C96.9 41.1162 97.9685 40.9895 98.5621 40.1422C99.1557 39.295 99.0471 38.0479 98.3212 37.355L98.3178 37.359ZM95.3837 37.6322C95.0072 37.5965 94.6341 37.6322 94.2576 37.7312C94.0507 37.7866 93.8437 37.8618 93.6402 37.9568C93.4774 38.032 93.3112 37.9885 93.1925 37.8776C93.0738 37.7628 93.0059 37.5807 93.0364 37.3828C93.0771 37.1254 93.0975 36.876 93.1043 36.6305C93.1145 36.1832 93.067 35.7477 92.9652 35.324C92.877 34.9677 93.1178 34.6233 93.4367 34.651C93.8132 34.6866 94.1863 34.651 94.5629 34.552C94.7698 34.4966 94.9767 34.4214 95.1802 34.3224C95.343 34.2472 95.5092 34.2907 95.628 34.4016C95.7467 34.5164 95.8145 34.6985 95.784 34.8965C95.7433 35.1538 95.7229 35.4032 95.7161 35.6487C95.706 36.0961 95.7535 36.5316 95.8552 36.9552C95.9434 37.3115 95.7026 37.6559 95.3837 37.6282V37.6322Z" fill="#FFF7E6"/>
<path d="M97.6836 27.3981L99.6035 24.793L93.7556 16.863C93.3248 16.285 92.5752 16.2098 92.0664 16.6967C91.5576 17.1837 91.4694 18.0507 91.8696 18.6604L97.6836 27.3981Z" fill="#FFF7E6"/>
<path d="M110.889 41.2151L108.728 37.5253C108.372 36.9156 108.474 36.0882 108.962 35.621L109.637 34.9757C110.363 34.2828 110.468 33.0357 109.878 32.1885C109.288 31.3413 108.216 31.2185 107.49 31.9074L106.862 32.5052C106.354 32.9922 105.607 32.917 105.173 32.3389L102.446 28.6412L100.482 31.5946L102.605 34.7856C103.006 35.3953 102.917 36.2663 102.409 36.7493L101.781 37.3471C101.055 38.04 100.95 39.2871 101.54 40.1343C102.131 40.9816 103.202 41.1043 103.928 40.4154L104.603 39.774C105.092 39.3069 105.807 39.3544 106.248 39.8849L108.915 43.0917C109.356 43.6223 110.071 43.6698 110.56 43.2026L110.655 43.1115C111.143 42.6444 111.245 41.8169 110.889 41.2072V41.2151ZM107.134 35.3241C107.029 35.7477 106.985 36.1832 106.995 36.6306C107.001 36.876 107.022 37.1294 107.063 37.3828C107.093 37.5847 107.025 37.7668 106.907 37.8777C106.788 37.9885 106.622 38.0321 106.459 37.9568C106.252 37.8618 106.045 37.7866 105.841 37.7312C105.468 37.6322 105.092 37.5966 104.715 37.6322C104.4 37.6599 104.159 37.3155 104.244 36.9592C104.349 36.5355 104.393 36.1 104.383 35.6527C104.376 35.4072 104.356 35.1538 104.315 34.9004C104.284 34.6985 104.352 34.5164 104.471 34.4056C104.59 34.2947 104.756 34.2512 104.919 34.3264C105.126 34.4214 105.333 34.4966 105.536 34.556C105.909 34.655 106.286 34.6906 106.662 34.655C106.978 34.6273 107.219 34.9717 107.134 35.328V35.3241Z" fill="#FFF7E6"/>
</g>
<defs>
<filter id="filter0_d_73_2913" x="0" y="0" width="339" height="60" filterUnits="userSpaceOnUse" color-interpolation-filters="sRGB">
<feFlood flood-opacity="0" result="BackgroundImageFix"/>
<feColorMatrix in="SourceAlpha" type="matrix" values="0 0 0 0 0 0 0 0 0 0 0 0 0 0 0 0 0 0 127 0" result="hardAlpha"/>
<feOffset dy="1"/>
<feGaussianBlur stdDeviation="1"/>
<feColorMatrix type="matrix" values="0 0 0 0 0.776471 0 0 0 0 0.894118 0 0 0 0 0.964706 0 0 0 0.05 0"/>
<feBlend mode="normal" in2="BackgroundImageFix" result="effect1_dropShadow_73_2913"/>
<feBlend mode="normal" in="SourceGraphic" in2="effect1_dropShadow_73_2913" result="shape"/>
</filter>
<clipPath id="clip0_73_2913">
<rect width="22.0991" height="27.1552" fill="white" transform="translate(89 16.376)"/>
</clipPath>
</defs>
</svg>
