<svg width="81" height="69" viewBox="0 0 81 69" fill="none" xmlns="http://www.w3.org/2000/svg">
<path d="M10.1512 61.5957H11.5301C11.3416 62.3932 10.9821 63.0061 10.4517 63.4343C9.90565 63.8586 9.25939 64.0707 8.51295 64.0707C7.83722 64.055 7.27346 63.89 6.82166 63.5757C6.36201 63.2732 6.02808 62.9236 5.81986 62.5268C5.757 62.3971 5.70003 62.2734 5.64896 62.1555C5.60182 62.0337 5.56253 61.8805 5.5311 61.6958C5.47217 61.3501 5.44271 60.6862 5.44271 59.704C5.44271 58.7061 5.47217 58.0383 5.5311 57.7004C5.59396 57.3625 5.69021 57.0895 5.81986 56.8813C6.02808 56.4845 6.36201 56.1309 6.82166 55.8206C7.27346 55.5063 7.83722 55.3452 8.51295 55.3373C9.34189 55.3452 10.0176 55.5907 10.5401 56.074C11.0626 56.5611 11.3926 57.1642 11.5301 57.8831H10.1512C10.0451 57.5374 9.85261 57.2427 9.57368 56.9991C9.28296 56.7674 8.92938 56.6475 8.51295 56.6397C8.20651 56.6475 7.94329 56.7084 7.72329 56.8224C7.49935 56.9402 7.31864 57.0875 7.18113 57.2643C7.0122 57.449 6.90024 57.6867 6.84523 57.9774C6.78238 58.2838 6.75095 58.8594 6.75095 59.704C6.75095 60.5487 6.78238 61.1203 6.84523 61.4189C6.90024 61.7175 7.0122 61.9591 7.18113 62.1437C7.31864 62.3205 7.49935 62.4639 7.72329 62.5739C7.94329 62.7035 8.20651 62.7684 8.51295 62.7684C9.24367 62.7684 9.78976 62.3775 10.1512 61.5957ZM17.1579 64V60.2462H13.7577V64H12.4553V55.408H13.7577V59.0912H17.1579V55.408H18.4603V64H17.1579ZM21.8016 60.9239H24.312L23.0686 57.17H23.045L21.8016 60.9239ZM25.3492 64L24.6833 62.0789H21.4244L20.7644 64H19.3855L22.5088 55.408H23.599L26.7222 64H25.3492ZM27.6474 64V55.408H28.9498V62.7684H33.1338V64H27.6474ZM34.3654 64V55.408H35.6678V62.7684H39.8518V64H34.3654ZM41.0834 64V55.408H46.5698V56.6397H42.3858V59.0912H45.9569V60.2462H42.3858V62.7684H46.5698V64H41.0834ZM47.8014 64V55.408H49.0271L52.9165 61.5132H52.9401V55.408H54.2424V64H53.0108L49.1273 57.8949H49.1037V64H47.8014ZM58.8507 60.4996V59.2679H61.9033V61.0182C61.8876 61.8785 61.5929 62.5994 61.0193 63.1809C60.4418 63.7584 59.715 64.055 58.8389 64.0707C58.1632 64.055 57.5994 63.89 57.1476 63.5757C56.688 63.2732 56.3541 62.9236 56.1458 62.5268C56.083 62.3971 56.026 62.2734 55.9749 62.1555C55.9278 62.0337 55.8885 61.8805 55.8571 61.6958C55.7982 61.3501 55.7687 60.6862 55.7687 59.704C55.7687 58.7061 55.7982 58.0383 55.8571 57.7004C55.9199 57.3625 56.0162 57.0895 56.1458 56.8813C56.3541 56.4845 56.688 56.1309 57.1476 55.8206C57.5994 55.5063 58.1632 55.3452 58.8389 55.3373C59.6679 55.3452 60.3436 55.5907 60.8661 56.074C61.3886 56.5611 61.7186 57.1642 61.8561 57.8831H60.4772C60.3711 57.5374 60.1786 57.2427 59.8997 56.9991C59.6089 56.7674 59.2554 56.6475 58.8389 56.6397C58.5325 56.6475 58.2693 56.7084 58.0493 56.8224C57.8253 56.9402 57.6446 57.0875 57.5071 57.2643C57.3382 57.449 57.2262 57.6867 57.1712 57.9774C57.1084 58.2838 57.0769 58.8594 57.0769 59.704C57.0769 60.5487 57.1084 61.1203 57.1712 61.4189C57.2262 61.7175 57.3382 61.9591 57.5071 62.1437C57.6446 62.3205 57.8253 62.4639 58.0493 62.5739C58.2693 62.7035 58.5325 62.7684 58.8389 62.7684C59.3457 62.7684 59.7641 62.5955 60.0941 62.2498C60.4241 61.9198 60.5931 61.4857 60.6009 60.9474V60.4996H58.8507ZM63.4296 64V55.408H68.9159V56.6397H64.7319V59.0912H68.303V60.2462H64.7319V62.7684H68.9159V64H63.4296ZM70.2536 61.9139C70.9372 62.4757 71.7504 62.7605 72.6933 62.7684C73.809 62.7527 74.3748 62.3539 74.3905 61.5721C74.3983 60.9317 74.0251 60.5467 73.2708 60.4171C72.9251 60.3699 72.546 60.3169 72.1335 60.258C71.3949 60.1362 70.8331 59.8631 70.4481 59.4388C70.0513 59.0028 69.8529 58.4724 69.8529 57.8477C69.8529 57.0974 70.1024 56.4924 70.6013 56.0327C71.0845 55.577 71.7701 55.3452 72.6579 55.3373C73.7265 55.3609 74.6557 55.6575 75.4453 56.2272L74.7205 57.2997C74.0762 56.8754 73.3671 56.6554 72.5931 56.6397C72.1924 56.6397 71.8585 56.7399 71.5913 56.9402C71.3124 57.1484 71.169 57.4588 71.1611 57.8713C71.1611 58.1188 71.2574 58.3427 71.4499 58.5431C71.6424 58.7474 71.9508 58.8888 72.3751 58.9674C72.6108 59.0067 72.933 59.0519 73.3415 59.1029C74.1469 59.2129 74.7421 59.5017 75.1271 59.9692C75.5082 60.4289 75.6987 60.9632 75.6987 61.5721C75.6555 63.2143 74.6498 64.0471 72.6815 64.0707C71.4086 64.0707 70.3145 63.6779 69.3991 62.8921L70.2536 61.9139Z" fill="#FFF7E6"/>
<g clip-path="url(#clip0_73_2914)">
<path d="M37.3729 26.2468L36.4584 25.5003C35.7169 24.8922 35.5883 23.8096 36.1717 23.0483L51.8178 2.89873C52.4011 2.13744 52.2726 1.04987 51.5311 0.446768C50.7895 -0.156336 49.702 -0.0673536 49.0692 0.654394L32.4344 19.9883C31.8066 20.7101 30.7141 20.804 29.9726 20.1959L29.058 19.4495C28.0001 18.5844 26.4429 18.7426 25.5778 19.8005C24.7127 20.8584 24.8709 22.4156 25.9288 23.2807L26.9126 24.0865C27.6244 24.6698 27.7727 25.703 27.2537 26.4643L24.1047 31.0617C23.5856 31.823 23.7339 32.8562 24.4458 33.4395L24.5842 33.5532C25.296 34.1365 26.3391 34.0772 26.9818 33.4148L30.8673 29.4106C31.51 28.7482 32.5531 28.6888 33.2649 29.2722L34.2487 30.073C35.3066 30.9381 36.8638 30.7799 37.7289 29.722C38.594 28.6641 38.4358 27.1069 37.3779 26.2418L37.3729 26.2468ZM33.0968 26.5879C32.5481 26.5434 32.0043 26.5879 31.4556 26.7114C31.1541 26.7807 30.8525 26.8746 30.5559 26.9932C30.3186 27.0871 30.0764 27.0328 29.9034 26.8944C29.7303 26.751 29.6315 26.5236 29.676 26.2764C29.7353 25.9551 29.7649 25.6437 29.7748 25.3372C29.7897 24.7785 29.7204 24.2348 29.5721 23.7058C29.4436 23.2609 29.7946 22.8308 30.2593 22.8654C30.808 22.9099 31.3518 22.8654 31.9005 22.7418C32.2021 22.6726 32.5036 22.5787 32.8002 22.4551C33.0375 22.3612 33.2797 22.4156 33.4528 22.554C33.6258 22.6973 33.7247 22.9247 33.6802 23.1719C33.6208 23.4932 33.5912 23.8047 33.5813 24.1112C33.5665 24.6698 33.6357 25.2136 33.784 25.7425C33.9125 26.1874 33.5615 26.6175 33.0968 26.5829V26.5879Z" fill="#FFF7E6"/>
<path d="M36.4485 13.809L39.2465 10.5562L30.724 0.654415C30.0962 -0.0673317 29.0037 -0.161258 28.2621 0.44679C27.5206 1.05484 27.3921 2.13746 27.9754 2.89875L36.4485 13.809Z" fill="#FFF7E6"/>
<path d="M55.6935 31.0617L52.5445 26.4544C52.0254 25.6931 52.1737 24.6599 52.8856 24.0765L53.8694 23.2708C54.9273 22.4057 55.0805 20.8485 54.2203 19.7906C53.3602 18.7327 51.798 18.5794 50.7401 19.4396L49.8256 20.186C49.0841 20.7941 47.9965 20.7002 47.3637 19.9784L43.3892 15.3612L40.5269 19.049L43.6215 23.0335C44.2049 23.7948 44.0763 24.8823 43.3348 25.4854L42.4203 26.2319C41.3624 27.097 41.2091 28.6542 42.0693 29.7121C42.9294 30.77 44.4916 30.9233 45.5495 30.0631L46.5332 29.2623C47.2451 28.6789 48.2882 28.7382 48.9308 29.4007L52.8164 33.4049C53.459 34.0673 54.5021 34.1266 55.214 33.5433L55.3524 33.4296C56.0643 32.8463 56.2126 31.8131 55.6935 31.0518V31.0617ZM50.2211 23.7058C50.0678 24.2347 50.0036 24.7785 50.0184 25.3371C50.0283 25.6436 50.0579 25.96 50.1173 26.2764C50.1617 26.5285 50.0629 26.7559 49.8899 26.8943C49.7168 27.0327 49.4746 27.0871 49.2373 26.9932C48.9358 26.8746 48.6342 26.7806 48.3376 26.7114C47.7938 26.5878 47.2451 26.5433 46.6964 26.5878C46.2366 26.6224 45.8856 26.1924 46.0092 25.7474C46.1625 25.2185 46.2267 24.6747 46.2119 24.1161C46.202 23.8096 46.1724 23.4932 46.113 23.1768C46.0686 22.9247 46.1674 22.6973 46.3404 22.5589C46.5135 22.4205 46.7557 22.3661 46.993 22.46C47.2945 22.5787 47.5961 22.6726 47.8927 22.7468C48.4365 22.8703 48.9852 22.9148 49.5339 22.8703C49.9937 22.8357 50.3447 23.2658 50.2211 23.7107V23.7058Z" fill="#FFF7E6"/>
</g>
<defs>
<clipPath id="clip0_73_2914">
<rect width="32.2067" height="33.9073" fill="white" transform="translate(23.7933 0.0463867)"/>
</clipPath>
</defs>
</svg>
