<svg width="41" height="75" viewBox="0 0 41 75" fill="none" xmlns="http://www.w3.org/2000/svg">
<path d="M10.5821 69V65.2462H7.18188V69H5.87954V60.408H7.18188V64.0912H10.5821V60.408H11.8845V69H10.5821ZM13.4108 64.704C13.4108 63.7061 13.4402 63.0383 13.4991 62.7004C13.562 62.3625 13.6583 62.0895 13.7879 61.8813C13.9961 61.4845 14.3301 61.1309 14.7897 60.8206C15.2415 60.5063 15.8053 60.3452 16.481 60.3373C17.1646 60.3452 17.7342 60.5063 18.19 60.8206C18.6417 61.1309 18.9678 61.4845 19.1682 61.8813C19.3135 62.0895 19.4137 62.3625 19.4687 62.7004C19.5198 63.0383 19.5453 63.7061 19.5453 64.704C19.5453 65.6862 19.5198 66.3501 19.4687 66.6958C19.4137 67.0416 19.3135 67.3185 19.1682 67.5268C18.9678 67.9236 18.6417 68.2732 18.19 68.5757C17.7342 68.89 17.1646 69.055 16.481 69.0707C15.8053 69.055 15.2415 68.89 14.7897 68.5757C14.3301 68.2732 13.9961 67.9236 13.7879 67.5268C13.725 67.3971 13.6681 67.2734 13.617 67.1555C13.5699 67.0337 13.5306 66.8805 13.4991 66.6958C13.4402 66.3501 13.4108 65.6862 13.4108 64.704ZM14.719 64.704C14.719 65.5487 14.7504 66.1203 14.8133 66.4189C14.8683 66.7175 14.9802 66.9591 15.1492 67.1437C15.2867 67.3205 15.4674 67.4639 15.6913 67.5739C15.9113 67.7035 16.1746 67.7684 16.481 67.7684C16.7914 67.7684 17.0605 67.7035 17.2883 67.5739C17.5044 67.4639 17.6773 67.3205 17.8069 67.1437C17.9758 66.9591 18.0917 66.7175 18.1546 66.4189C18.2135 66.1203 18.243 65.5487 18.243 64.704C18.243 63.8594 18.2135 63.2838 18.1546 62.9774C18.0917 62.6867 17.9758 62.449 17.8069 62.2643C17.6773 62.0875 17.5044 61.9402 17.2883 61.8224C17.0605 61.7084 16.7914 61.6475 16.481 61.6397C16.1746 61.6475 15.9113 61.7084 15.6913 61.8224C15.4674 61.9402 15.2867 62.0875 15.1492 62.2643C14.9802 62.449 14.8683 62.6867 14.8133 62.9774C14.7504 63.2838 14.719 63.8594 14.719 64.704ZM21.0716 69V60.408H22.2974L24.7606 66.0064L27.1767 60.408H28.4084V69H27.106V63.6433H27.0766L25.2792 67.7684H24.1949L22.3975 63.6433H22.374V69H21.0716ZM30.2175 69V60.408H35.7039V61.6397H31.5199V64.0912H35.091V65.2462H31.5199V67.7684H35.7039V69H30.2175Z" fill="#FFF7E6"/>
<g clip-path="url(#clip0_73_2995)">
<path d="M34.4176 19.3631C30.1086 19.1276 27.1649 17.7561 25.2205 15.0991C23.1726 12.3015 22.1006 7.84881 21.9564 1.51457C21.9379 0.679206 21.2984 0.0103901 20.5086 0.00128174C20.5086 0.00128174 20.5037 0.00128174 20.5 0.00128174C20.4975 0.00128174 20.495 0.00128174 20.4913 0.00128174C19.7015 0.0116913 19.0632 0.680507 19.0435 1.51588C18.8993 7.85011 17.8273 12.3028 15.7794 15.1004C13.835 17.7574 10.8913 19.1289 6.58234 19.3644C5.80113 19.4073 5.1875 20.0827 5.1875 20.9089V20.9506C5.1875 21.7755 5.80236 22.4521 6.58234 22.4951C10.8913 22.7306 13.835 24.1021 15.7794 26.7591C17.8273 29.5567 19.0435 33.2104 19.0435 42.488C19.0435 43.3234 19.7015 43.9922 20.4913 44.0013C20.4913 44.0013 20.4963 44.0013 20.5 44.0013C20.5024 44.0013 20.5049 44.0013 20.5086 44.0013C21.2984 43.9909 21.9564 43.3221 21.9564 42.4867C21.9564 33.2091 23.1726 29.5554 25.2205 26.7578C27.1649 24.1008 30.1086 22.7293 34.4176 22.4938C35.1988 22.4508 35.8124 21.7755 35.8124 20.9493V20.9076C35.8124 20.0827 35.1976 19.406 34.4176 19.3631ZM25.5914 22.2075C24.5798 22.9505 23.6938 23.8431 22.9299 24.888C22.5072 25.4644 22.1215 26.0864 21.7704 26.7565C21.4943 27.2835 20.9978 27.5476 20.5 27.5502C20.0022 27.5476 19.5056 27.2835 19.2296 26.7565C18.8784 26.0864 18.4927 25.4644 18.0701 24.888C17.3049 23.8431 16.4202 22.9505 15.4085 22.2075C14.5596 21.5829 14.5596 20.2726 15.4085 19.6481C16.4202 18.9051 17.3061 18.0125 18.0701 16.9676C18.4927 16.3912 18.8784 15.7692 19.2296 15.0991C19.5056 14.5721 20.0022 14.308 20.5 14.3053C20.9978 14.308 21.4943 14.5721 21.7704 15.0991C22.1215 15.7692 22.5072 16.3912 22.9299 16.9676C23.695 18.0125 24.5798 18.9051 25.5914 19.6481C26.4404 20.2726 26.4404 21.5829 25.5914 22.2075Z" fill="#FFF7E6"/>
<path d="M39.5534 24.5406C33.6265 24.5406 30.1444 25.5907 27.9129 28.0538C25.7553 30.4337 24.8348 34.1109 24.8348 40.3488C24.8348 41.1933 25.483 41.8764 26.2814 41.8764C35.635 41.8764 41 36.1147 41 26.0682C41 25.2237 40.3518 24.5406 39.5534 24.5406ZM37.3983 29.8065C36.9645 32.0862 36.1008 33.93 34.8119 35.3132C33.5526 36.6651 31.8818 37.5799 29.8215 38.0483C28.9688 38.2422 28.1815 37.4927 28.2653 36.5767C28.6127 32.8032 29.4913 31.3146 30.2787 30.4454C31.0821 29.5593 32.4646 28.5704 35.9911 28.1761C36.8573 28.0798 37.5683 28.9035 37.397 29.8052L37.3983 29.8065Z" fill="#FFF7E6"/>
<path d="M13.0883 28.0538C10.8556 25.592 7.37466 24.5406 1.44782 24.5406C0.648122 24.5406 0.0012207 25.225 0.0012207 26.0682C0.0012207 36.1147 5.36619 41.8764 14.7198 41.8764C15.5195 41.8764 16.1664 41.192 16.1664 40.3488C16.1664 34.1109 15.2459 30.4337 13.0883 28.0538ZM11.1784 38.0483C9.11822 37.5799 7.44736 36.6651 6.18806 35.3132C4.90042 33.93 4.03542 32.0862 3.60169 29.8065C3.42918 28.897 4.15125 28.0798 5.02364 28.1787C8.53786 28.5743 9.91668 29.5606 10.7188 30.4467C11.5062 31.3159 12.3848 32.8032 12.7322 36.578C12.8173 37.494 12.0287 38.2435 11.176 38.0496L11.1784 38.0483Z" fill="#FFF7E6"/>
</g>
<defs>
<clipPath id="clip0_73_2995">
<rect width="41" height="44" fill="white"/>
</clipPath>
</defs>
</svg>
