<svg width="81" height="69" viewBox="0 0 81 69" fill="none" xmlns="http://www.w3.org/2000/svg">
<path d="M1.74192 64V55.408H3.04427V62.7684H7.22828V64H1.74192ZM8.45991 64V55.408H13.9463V56.6397H9.76226V59.0912H13.3334V60.2462H9.76226V62.7684H13.9463V64H8.45991ZM16.6983 60.9239H19.2087L17.9653 57.17H17.9417L16.6983 60.9239ZM20.2459 64L19.5799 62.0789H16.3211L15.6611 64H14.2822L17.4054 55.408H18.4956L21.6189 64H20.2459ZM22.5441 64V55.408H25.5495C26.7124 55.4159 27.5846 55.8991 28.166 56.8577C28.3742 57.1799 28.5058 57.5177 28.5608 57.8713C28.6041 58.2249 28.6257 58.8358 28.6257 59.704C28.6257 60.6273 28.5923 61.2716 28.5255 61.6369C28.4941 61.8216 28.4469 61.9866 28.3841 62.1319C28.3173 62.2734 28.2367 62.4207 28.1424 62.5739C27.891 62.9786 27.5414 63.3125 27.0935 63.5757C26.6496 63.8586 26.1054 64 25.4611 64H22.5441ZM23.8465 56.6397V62.7684H25.4022C26.1329 62.7684 26.6633 62.5189 26.9933 62.02C27.1387 61.8353 27.231 61.6016 27.2703 61.3187C27.3056 61.0398 27.3233 60.5173 27.3233 59.7512C27.3233 59.0047 27.3056 58.4704 27.2703 58.1483C27.2231 57.8261 27.1112 57.5649 26.9344 57.3645C26.5729 56.8656 26.0622 56.624 25.4022 56.6397H23.8465ZM30.146 64V55.408H35.6324V56.6397H31.4484V59.0912H35.0195V60.2462H31.4484V62.7684H35.6324V64H30.146ZM38.1664 56.569V59.1737H40.1346C40.6218 59.1658 40.9872 59.0244 41.2307 58.7494C41.4704 58.494 41.5902 58.1797 41.5902 57.8065C41.5823 57.3586 41.4389 57.0345 41.16 56.8341C40.94 56.6574 40.6218 56.569 40.2054 56.569H38.1664ZM36.864 64V55.408H40.2171C40.9322 55.408 41.5156 55.5966 41.9674 55.9738C42.5134 56.402 42.7983 57.0129 42.8218 57.8065C42.8061 58.9733 42.2522 59.7669 41.16 60.1872L43.1518 64H41.602L39.8282 60.3287H38.1664V64H36.864ZM44.2303 64V55.408H47.5598C48.4044 55.4159 49.0389 55.6281 49.4632 56.0445C49.8914 56.4649 50.1055 57.0208 50.1055 57.7122C50.1134 58.0658 50.0289 58.4036 49.8521 58.7258C49.7618 58.879 49.6321 59.0244 49.4632 59.1619C49.2943 59.3072 49.0861 59.4388 48.8386 59.5567V59.5803C49.3061 59.7021 49.6596 59.9476 49.8993 60.3169C50.1232 60.698 50.2352 61.1124 50.2352 61.5603C50.2273 62.3028 49.9955 62.8902 49.5398 63.3223C49.088 63.7741 48.5243 64 47.8485 64H44.2303ZM47.5362 60.1872H45.5326V62.7684H47.5362C48.0194 62.7605 48.373 62.6289 48.5969 62.3735C48.8209 62.1221 48.9328 61.8235 48.9328 61.4778C48.9328 61.1242 48.8209 60.8217 48.5969 60.5703C48.373 60.3228 48.0194 60.1951 47.5362 60.1872ZM47.4125 56.569H45.5326V59.0263H47.4125C47.8878 59.0263 48.2375 58.9026 48.4614 58.6551C48.6893 58.4272 48.8032 58.1404 48.8032 57.7947C48.8032 57.449 48.6893 57.1563 48.4614 56.9166C48.2375 56.6927 47.8878 56.5768 47.4125 56.569ZM51.3018 59.704C51.3018 58.7061 51.3313 58.0383 51.3902 57.7004C51.4531 57.3625 51.5493 57.0895 51.679 56.8813C51.8872 56.4845 52.2211 56.1309 52.6808 55.8206C53.1326 55.5063 53.6963 55.3452 54.3721 55.3373C55.0556 55.3452 55.6253 55.5063 56.081 55.8206C56.5328 56.1309 56.8589 56.4845 57.0593 56.8813C57.2046 57.0895 57.3048 57.3625 57.3598 57.7004C57.4109 58.0383 57.4364 58.7061 57.4364 59.704C57.4364 60.6862 57.4109 61.3501 57.3598 61.6958C57.3048 62.0416 57.2046 62.3185 57.0593 62.5268C56.8589 62.9236 56.5328 63.2732 56.081 63.5757C55.6253 63.89 55.0556 64.055 54.3721 64.0707C53.6963 64.055 53.1326 63.89 52.6808 63.5757C52.2211 63.2732 51.8872 62.9236 51.679 62.5268C51.6161 62.3971 51.5591 62.2734 51.5081 62.1555C51.4609 62.0337 51.4216 61.8805 51.3902 61.6958C51.3313 61.3501 51.3018 60.6862 51.3018 59.704ZM52.6101 59.704C52.6101 60.5487 52.6415 61.1203 52.7043 61.4189C52.7593 61.7175 52.8713 61.9591 53.0402 62.1437C53.1777 62.3205 53.3585 62.4639 53.5824 62.5739C53.8024 62.7035 54.0656 62.7684 54.3721 62.7684C54.6824 62.7684 54.9515 62.7035 55.1794 62.5739C55.3955 62.4639 55.5683 62.3205 55.698 62.1437C55.8669 61.9591 55.9828 61.7175 56.0457 61.4189C56.1046 61.1203 56.1341 60.5487 56.1341 59.704C56.1341 58.8594 56.1046 58.2838 56.0457 57.9774C55.9828 57.6867 55.8669 57.449 55.698 57.2643C55.5683 57.0875 55.3955 56.9402 55.1794 56.8224C54.9515 56.7084 54.6824 56.6475 54.3721 56.6397C54.0656 56.6475 53.8024 56.7084 53.5824 56.8224C53.3585 56.9402 53.1777 57.0875 53.0402 57.2643C52.8713 57.449 52.7593 57.6867 52.7043 57.9774C52.6415 58.2838 52.6101 58.8594 52.6101 59.704ZM60.2591 60.9239H62.7695L61.5261 57.17H61.5026L60.2591 60.9239ZM63.8067 64L63.1408 62.0789H59.882L59.222 64H57.843L60.9663 55.408H62.0565L65.1798 64H63.8067ZM67.4073 56.569V59.1737H69.3756C69.8627 59.1658 70.2281 59.0244 70.4717 58.7494C70.7113 58.494 70.8311 58.1797 70.8311 57.8065C70.8233 57.3586 70.6799 57.0345 70.4009 56.8341C70.1809 56.6574 69.8627 56.569 69.4463 56.569H67.4073ZM66.105 64V55.408H69.4581C70.1731 55.408 70.7565 55.5966 71.2083 55.9738C71.7544 56.402 72.0392 57.0129 72.0628 57.8065C72.047 58.9733 71.4931 59.7669 70.4009 60.1872L72.3928 64H70.8429L69.0691 60.3287H67.4073V64H66.105ZM73.4712 64V55.408H76.4766C77.6395 55.4159 78.5116 55.8991 79.0931 56.8577C79.3013 57.1799 79.4329 57.5177 79.4879 57.8713C79.5311 58.2249 79.5527 58.8358 79.5527 59.704C79.5527 60.6273 79.5193 61.2716 79.4526 61.6369C79.4211 61.8216 79.374 61.9866 79.3111 62.1319C79.2443 62.2734 79.1638 62.4207 79.0695 62.5739C78.8181 62.9786 78.4684 63.3125 78.0206 63.5757C77.5766 63.8586 77.0325 64 76.3882 64H73.4712ZM74.7735 56.6397V62.7684H76.3293C77.06 62.7684 77.5904 62.5189 77.9204 62.02C78.0657 61.8353 78.1581 61.6016 78.1973 61.3187C78.2327 61.0398 78.2504 60.5173 78.2504 59.7512C78.2504 59.0047 78.2327 58.4704 78.1973 58.1483C78.1502 57.8261 78.0382 57.5649 77.8614 57.3645C77.5 56.8656 76.9893 56.624 76.3293 56.6397H74.7735Z" fill="#FFF7E6"/>
<g clip-path="url(#clip0_141_153)">
<path d="M37.3729 26.2468L36.4584 25.5003C35.7169 24.8922 35.5883 23.8096 36.1717 23.0483L51.8178 2.89873C52.4011 2.13744 52.2726 1.04987 51.531 0.446768C50.7895 -0.156336 49.702 -0.0673536 49.0692 0.654394L32.4344 19.9883C31.8066 20.7101 30.7141 20.804 29.9726 20.1959L29.058 19.4495C28.0001 18.5844 26.4429 18.7426 25.5778 19.8005C24.7127 20.8584 24.8709 22.4156 25.9288 23.2807L26.9126 24.0865C27.6244 24.6698 27.7727 25.703 27.2537 26.4643L24.1047 31.0617C23.5856 31.823 23.7339 32.8562 24.4458 33.4395L24.5842 33.5532C25.296 34.1365 26.3391 34.0772 26.9818 33.4148L30.8673 29.4106C31.51 28.7482 32.5531 28.6888 33.2649 29.2722L34.2487 30.073C35.3066 30.9381 36.8638 30.7799 37.7289 29.722C38.594 28.6641 38.4358 27.1069 37.3779 26.2418L37.3729 26.2468ZM33.0968 26.5879C32.5481 26.5434 32.0043 26.5879 31.4556 26.7114C31.1541 26.7807 30.8525 26.8746 30.5559 26.9932C30.3186 27.0871 30.0764 27.0328 29.9034 26.8944C29.7303 26.751 29.6315 26.5236 29.676 26.2764C29.7353 25.9551 29.7649 25.6437 29.7748 25.3372C29.7897 24.7785 29.7204 24.2348 29.5721 23.7058C29.4436 23.2609 29.7946 22.8308 30.2593 22.8654C30.808 22.9099 31.3518 22.8654 31.9005 22.7418C32.2021 22.6726 32.5036 22.5787 32.8002 22.4551C33.0375 22.3612 33.2797 22.4156 33.4528 22.554C33.6258 22.6973 33.7247 22.9247 33.6802 23.1719C33.6208 23.4932 33.5912 23.8047 33.5813 24.1112C33.5665 24.6698 33.6357 25.2136 33.784 25.7425C33.9125 26.1874 33.5615 26.6175 33.0968 26.5829V26.5879Z" fill="#FFF7E6"/>
<path d="M36.4485 13.809L39.2465 10.5562L30.724 0.654415C30.0962 -0.0673317 29.0037 -0.161258 28.2621 0.44679C27.5206 1.05484 27.3921 2.13746 27.9754 2.89875L36.4485 13.809Z" fill="#FFF7E6"/>
<path d="M55.6935 31.0617L52.5445 26.4544C52.0254 25.6931 52.1737 24.6599 52.8856 24.0765L53.8694 23.2708C54.9273 22.4057 55.0805 20.8485 54.2203 19.7906C53.3602 18.7327 51.798 18.5794 50.7401 19.4396L49.8256 20.186C49.0841 20.7941 47.9965 20.7002 47.3637 19.9784L43.3892 15.3612L40.5269 19.049L43.6215 23.0335C44.2049 23.7948 44.0763 24.8823 43.3348 25.4854L42.4203 26.2319C41.3624 27.097 41.2091 28.6542 42.0693 29.7121C42.9294 30.77 44.4916 30.9233 45.5495 30.0631L46.5332 29.2623C47.2451 28.6789 48.2882 28.7382 48.9308 29.4007L52.8164 33.4049C53.459 34.0673 54.5021 34.1266 55.214 33.5433L55.3524 33.4296C56.0643 32.8463 56.2126 31.8131 55.6935 31.0518V31.0617ZM50.2211 23.7058C50.0678 24.2347 50.0036 24.7785 50.0184 25.3371C50.0283 25.6436 50.0579 25.96 50.1173 26.2764C50.1617 26.5285 50.0629 26.7559 49.8899 26.8943C49.7168 27.0327 49.4746 27.0871 49.2373 26.9932C48.9358 26.8746 48.6342 26.7806 48.3376 26.7114C47.7938 26.5878 47.2451 26.5433 46.6964 26.5878C46.2366 26.6224 45.8856 26.1924 46.0092 25.7474C46.1625 25.2185 46.2267 24.6747 46.2119 24.1161C46.202 23.8096 46.1724 23.4932 46.113 23.1768C46.0686 22.9247 46.1674 22.6973 46.3404 22.5589C46.5135 22.4205 46.7557 22.3661 46.993 22.46C47.2945 22.5787 47.5961 22.6726 47.8927 22.7468C48.4365 22.8703 48.9852 22.9148 49.5339 22.8703C49.9937 22.8357 50.3447 23.2658 50.2211 23.7107V23.7058Z" fill="#FFF7E6"/>
</g>
<defs>
<clipPath id="clip0_141_153">
<rect width="32.2067" height="33.9073" fill="white" transform="translate(23.7933 0.0463867)"/>
</clipPath>
</defs>
</svg>
